PathFileType	4	(X/Y/Z)	Patient4_TMGait_0pt7_01_right_35.trc.trc
DataRate	CameraRate	NumFrames	NumMarkers	Units	OrigDataRate	OrigDataStartFrame	OrigNumFrames
88.050314465409	88.050314465409	4	33	mm	88.050314465409	1	       141
Frame#	Time	Sacral			L.Shoulder			Chest			R.Shoulder			Neck			R.ASIS			L.ASIS			R.Thigh.Superior			R.Thigh.Lateral			R.Thigh.Inferior			R.Patella			L.Thigh.Superior			L.Thigh.Lateral			L.Thigh.Inferior			L.Patella			L.Shank.Superior			L.Shank.Lateral			L.Shank.Inferior			R.Shank.Superior			R.Shank.Lateral			R.Shank.Inferior			R.Heel			R.Midfoot.Superior			R.Midfoot.Lateral			R.Toe			L.Heel			L.Midfoot.Lateral			L.Midfoot.Superior			L.Toe			L.Elbow			L.Wrist			R.Elbow			R.Wrist			
		X1	Y1	Z1	X2	Y2	Z2	X3	Y3	Z3	X4	Y4	Z4	X5	Y5	Z5	X6	Y6	Z6	X7	Y7	Z7	X8	Y8	Z8	X9	Y9	Z9	X10	Y10	Z10	X11	Y11	Z11	X12	Y12	Z12	X13	Y13	Z13	X14	Y14	Z14	X15	Y15	Z15	X16	Y16	Z16	X17	Y17	Z17	X18	Y18	Z18	X19	Y19	Z19	X20	Y20	Z20	X21	Y21	Z21	X22	Y22	Z22	X23	Y23	Z23	X24	Y24	Z24	X25	Y25	Z25	X26	Y26	Z26	X27	Y27	Z27	X28	Y28	Z28	X29	Y29	Z29	X30	Y30	Z30	X31	Y31	Z31	X32	Y32	Z32	X33	Y33	Z33	

1	39.860000000000	841.614907060383	1013.007671301451	425.874832976084	1035.412394645781	1430.350943410772	234.942396909952	1135.825138401043	1361.786680514879	399.098033495407	1054.263984739661	1445.704789755136	569.595830757599	1042.742783840775	1495.885817727042	388.239767426657	1064.137885098595	947.675081461516	548.168903658924	1058.085376558129	958.989800661797	274.005518565448	1140.325537550119	772.221627754804	533.862063989490	1091.064319869699	655.645989540868	609.191250027962	1184.570313100990	610.317998369516	537.760481041661	1196.334364479233	496.877504154341	564.934468847015	1103.882984357910	750.978064315457	303.778168790386	1011.601882888142	636.065179260571	249.058898668005	1096.036955302185	556.692027679242	311.138975929401	1095.479031191744	486.239471016438	322.149229021466	1063.215790092904	415.052436204420	316.224105416058	966.721424883025	305.409992270701	268.189225682471	1010.804544259637	192.304867542025	340.580135399993	1116.396495499414	426.028100069929	569.380981786656	988.882210590045	393.999908917784	620.734120948277	974.231168755707	283.320047431242	575.880784755839	774.406858796489	231.469823311017	533.720123617142	935.840009086541	164.383157546303	591.797881479721	822.981919021900	170.469429261954	613.648141929100	988.905883806010	47.096427221939	624.913255184950	876.511567911500	40.307411211623	385.712842445212	949.838105741403	36.031767959864	304.615689075828	1033.827971725207	95.847573721820	330.580552036582	1161.933292730109	40.842122452658	300.978411520939	1003.888043755903	1077.052385031277	122.703702809988	1143.323760690303	854.876992687263	124.410105550254	1023.821245649526	1101.081222577240	694.395895130915	1220.159925842336	936.747525662627	648.609902261293	
2	39.871357142857	839.982956403420	1013.589362534619	424.519429488923	1037.171285719023	1430.291641061507	234.068210875976	1135.612649227852	1361.623213089868	399.232660727329	1052.769616929236	1446.045338243074	568.846947186090	1042.876661645830	1496.029225271681	387.237905627829	1061.919004195859	948.298460198202	548.403988531772	1057.596543954462	959.463295654409	273.961128013456	1140.521220857030	775.874233913889	533.814642744405	1093.579298883297	658.278548171230	609.180328457676	1187.677099198324	614.649295941059	537.638675064370	1201.990727538510	502.182595121275	564.797379737425	1100.192129913295	750.048794369658	303.764682377565	1006.461196555674	636.340181609772	248.616416423240	1089.423086469106	555.932908025371	310.859460380065	1087.825384400376	485.732068371467	321.938627220658	1055.624971355002	414.952582102676	315.840922268875	958.868468607693	305.523074252252	267.905153739883	1002.671918746449	192.357926255341	340.406388358111	1125.099996561950	428.924482262264	569.232357922416	999.758727507746	391.390512088108	621.272580336756	989.670176764121	280.448751234960	576.178553109065	792.510473825585	219.857517540297	535.102847778743	956.807421112220	160.153968726718	592.106774519740	844.143189007759	161.064639061227	614.488297853451	1015.111356565674	45.573549367679	624.608501898296	868.109086276242	40.414032711310	385.660058010431	941.455884422294	36.052413938519	304.593472209263	1025.469615212404	95.842778997049	330.488409559453	1153.549495929357	40.768424749716	300.945437436158	1013.583116880995	1077.945770588381	119.072241206653	1162.047676728728	862.598898918692	123.030633086344	1016.049149931582	1102.136823447322	694.295930049004	1197.221736389659	922.664787863619	655.926250570190	
3	39.882714285714	838.392192818924	1014.156992034805	423.210173899878	1038.909344681342	1430.229078804400	233.239249358201	1135.414584630532	1361.450938774013	399.386572386135	1051.309582258139	1446.362248780137	568.120729951396	1043.017603559554	1496.159535332429	386.279746580120	1059.737196402851	948.896081463631	548.649685440570	1057.088687329813	959.894284271852	273.937530119303	1140.647249077415	779.419891949467	533.749292255280	1095.974797764875	660.829558368659	609.133897557485	1190.621775190936	618.850184770387	537.476311095577	1207.446594729059	507.377749242309	564.613182571121	1096.560522595281	749.126170249418	303.798337198787	1001.394431461844	636.607464909422	248.195589564716	1082.870732260091	555.182298730034	310.620263672036	1080.228703211967	485.232660302136	321.771019263684	1048.115715446921	414.849385288906	315.487284576358	951.114648515411	305.628796151198	267.630435835734	994.644143911651	192.410688734988	340.249419866069	1133.599087578892	431.759787713232	569.073050385088	1010.509962949905	388.724442046024	621.831438796573	1005.003311391913	277.544900405825	576.528423257453	810.581718016540	208.205022727072	536.597306417374	977.704031175220	155.926408728436	592.490659218208	865.281656472403	151.674042274254	615.436333823047	1041.239289844755	44.110252663340	624.391311092136	859.813396886676	40.515741953000	385.607045809604	933.178570861044	36.071569166017	304.572043825097	1017.217668619496	95.842057026667	330.400587365530	1145.271659925968	40.697332900758	300.914340059651	1023.093465158305	1078.871022470505	115.529779499782	1180.460765665752	870.349519371880	121.729846099130	1008.374213985581	1103.183019615835	694.247506802179	1174.374409818385	909.065684294813	663.178438801367	
4	39.894071428571	836.877515647251	1014.693098331638	421.987607493157	1040.620748150009	1430.151861955131	232.511603123659	1135.252174047374	1361.246694441828	399.592002023205	1049.923081021923	1446.620417509680	567.452158157995	1043.183211078699	1496.252519938674	385.420141820822	1057.626572641880	949.431878345467	548.920674699244	1056.546319056492	960.231742186664	273.959392167027	1140.613228154652	782.718391512730	533.653043508342	1098.092843889227	663.190560766681	609.034072642864	1193.197942400977	622.756293506417	537.239916207487	1212.469859252522	512.352402037051	564.334572034224	1092.997420926053	748.194115621149	303.925528573017	996.403474438549	636.860179623650	247.813708499049	1076.351527433795	554.436329735154	310.453973979118	1072.655269777205	484.744660170020	321.674915447855	1040.669065871875	414.744750504616	315.184969355648	943.456684342939	305.722830241200	267.371002090560	986.724840972304	192.464682163911	340.122796231948	1141.708870478166	434.471883487146	568.897032123656	1021.099407177160	385.910719032941	622.444667545172	1020.265198291144	274.581766185365	576.978913222144	828.856689596225	196.395687891613	538.307834347600	998.669608923176	151.750245956180	593.019773626815	886.639406644870	142.298340188014	616.594835062563	1067.451349886194	42.907819880781	624.343700793195	851.635139000552	40.608525859625	385.554630833003	925.014914130110	36.087417241996	304.552812391098	1009.083143675580	95.848673296361	330.319979801181	1137.108974148964	40.632157342972	300.887384890779	1032.283357629363	1079.863904822806	112.154522060440	1198.355557576656	878.295100283367	120.599840006063	1000.787521455160	1104.251974910899	694.310372858739	1151.528704482391	896.438395079571	670.317279320412	
